<svg width="97" height="98" xmlns="http://www.w3.org/2000/svg" fill="none">
   <path id="svg_2" clip-rule="evenodd" d="m0,49c0,-27.062 21.715,-49 48.5,-49c26.786,0 48.5,21.938 48.5,49c0,27.061 -21.714,49 -48.5,49c-26.785,0 -48.5,-21.939 -48.5,-49z" fill-rule="evenodd" fill="#2CA01C"/>
   <path id="svg_3" clip-rule="evenodd" d="m65.88699,30.018l-2.73001,0l0,7.05l2.73001,0c6.62399,0 12.01399,5.354 12.01399,11.934c0,6.579 -5.39,11.932 -12.01399,11.932l-6.561,0l0,-36.883c0,-3.894 -3.179,-7.051 -7.099,-7.051l0,50.986l13.66,0c10.556,0 19.11299,-8.5 19.11299,-18.984c0,-10.485 -8.55699,-18.984 -19.11299,-18.984zm-51.88699,18.98c0,10.485 8.55701,18.984 19.11301,18.984l2.73,0l0,-7.051l-2.73,0c-6.62401,0 -12.01401,-5.352 -12.01401,-11.933c0,-6.579 5.39,-11.932 12.01401,-11.932l6.56099,0l0,36.883c0,3.894 3.179,7.051 7.099,7.051l0,-50.986l-13.65999,0c-10.556,0 -19.11301,8.5 -19.11301,18.984z" fill-rule="evenodd" fill="#fff"/>
</svg>